<?xml version="1.0" encoding="UTF-8" standalone="no"?>
<!-- Created with Inkscape (http://www.inkscape.org/) -->

<svg
   xmlns:dc="http://purl.org/dc/elements/1.1/"
   xmlns:cc="http://creativecommons.org/ns#"
   xmlns:rdf="http://www.w3.org/1999/02/22-rdf-syntax-ns#"
   xmlns:svg="http://www.w3.org/2000/svg"
   xmlns="http://www.w3.org/2000/svg"
   xmlns:xlink="http://www.w3.org/1999/xlink"
   xmlns:sodipodi="http://sodipodi.sourceforge.net/DTD/sodipodi-0.dtd"
   xmlns:inkscape="http://www.inkscape.org/namespaces/inkscape"
   width="210mm"
   height="297mm"
   viewBox="0 0 210 297"
   version="1.1"
   id="svg8"
   sodipodi:docname="LogoV1.svg"
   inkscape:version="0.92.1 r15371">
  <defs
     id="defs2">
    <linearGradient
       inkscape:collect="always"
       id="linearGradient4670">
      <stop
         style="stop-color:#000000;stop-opacity:1;"
         offset="0"
         id="stop4666" />
      <stop
         style="stop-color:#000000;stop-opacity:0;"
         offset="1"
         id="stop4668" />
    </linearGradient>
    <linearGradient
       inkscape:collect="always"
       id="linearGradient4662">
      <stop
         style="stop-color:#ff6600;stop-opacity:1"
         offset="0"
         id="stop4658" />
      <stop
         id="stop4676"
         offset="0.19892286"
         style="stop-color:#ff0000;stop-opacity:1" />
      <stop
         id="stop4674"
         offset="0.59402943"
         style="stop-color:#ff6600;stop-opacity:1" />
      <stop
         style="stop-color:#ff0000;stop-opacity:1"
         offset="1"
         id="stop4660" />
    </linearGradient>
    <linearGradient
       inkscape:collect="always"
       id="linearGradient866">
      <stop
         style="stop-color:#d40000;stop-opacity:1"
         offset="0"
         id="stop862" />
      <stop
         id="stop868"
         offset="0.22911619"
         style="stop-color:#ff6600;stop-opacity:1" />
      <stop
         style="stop-color:#d40000;stop-opacity:1"
         offset="0.479045"
         id="stop870" />
      <stop
         id="stop874"
         offset="0.66043127"
         style="stop-color:#ff6600;stop-opacity:1" />
      <stop
         id="stop872"
         offset="0.90193355"
         style="stop-color:#ff0000;stop-opacity:1" />
      <stop
         style="stop-color:#ff6600;stop-opacity:1"
         offset="1"
         id="stop864" />
    </linearGradient>
    <inkscape:perspective
       sodipodi:type="inkscape:persp3d"
       inkscape:vp_x="0 : 148.5 : 1"
       inkscape:vp_y="0 : 1000 : 0"
       inkscape:vp_z="210 : 148.5 : 1"
       inkscape:persp3d-origin="105 : 99 : 1"
       id="perspective34" />
    <radialGradient
       inkscape:collect="always"
       xlink:href="#linearGradient866"
       id="radialGradient860"
       cx="66.79438"
       cy="130.29256"
       fx="66.79438"
       fy="130.29256"
       r="28.700344"
       gradientTransform="matrix(1.2249405,0.82700385,-1.1455949,1.6967788,121.88617,-165.7546)"
       gradientUnits="userSpaceOnUse" />
    <radialGradient
       inkscape:collect="always"
       xlink:href="#linearGradient4662"
       id="radialGradient4664"
       cx="140.34097"
       cy="34.147072"
       fx="140.34097"
       fy="34.147072"
       r="10.461237"
       gradientTransform="matrix(1.768776,2.691479,-1.371247,0.9011508,-160.27263,-354.22949)"
       gradientUnits="userSpaceOnUse" />
    <radialGradient
       inkscape:collect="always"
       xlink:href="#linearGradient4670"
       id="radialGradient4672"
       cx="154.59229"
       cy="60.751301"
       fx="154.59229"
       fy="60.751301"
       r="10.461237"
       gradientTransform="matrix(0.03613117,0.09032777,-0.8159595,0.32638437,101.24839,52.108046)"
       gradientUnits="userSpaceOnUse" />
  </defs>
  <sodipodi:namedview
     id="base"
     pagecolor="#ffffff"
     bordercolor="#666666"
     borderopacity="1.0"
     inkscape:pageopacity="0.0"
     inkscape:pageshadow="2"
     inkscape:zoom="1.4"
     inkscape:cx="232.90158"
     inkscape:cy="819.60653"
     inkscape:document-units="mm"
     inkscape:current-layer="layer1"
     showgrid="false"
     inkscape:window-width="1920"
     inkscape:window-height="1017"
     inkscape:window-x="-8"
     inkscape:window-y="-8"
     inkscape:window-maximized="1" />
  <metadata
     id="metadata5">
    <rdf:RDF>
      <cc:Work
         rdf:about="">
        <dc:format>image/svg+xml</dc:format>
        <dc:type
           rdf:resource="http://purl.org/dc/dcmitype/StillImage" />
      </cc:Work>
    </rdf:RDF>
  </metadata>
  <g
     inkscape:label="Layer 1"
     inkscape:groupmode="layer"
     id="layer1">
    <text
       xml:space="preserve"
       style="font-style:normal;font-weight:normal;font-size:10.58333302px;line-height:1.25;font-family:sans-serif;letter-spacing:0px;word-spacing:0px;fill:#000000;fill-opacity:1;stroke:none;stroke-width:0.26458332"
       x="13.898015"
       y="176.72871"
       id="text67"><tspan
         sodipodi:role="line"
         id="tspan65"
         x="13.898015"
         y="186.38422"
         style="stroke-width:0.26458332" /></text>
    <flowRoot
       xml:space="preserve"
       id="flowRoot117"
       style="fill:black;fill-opacity:1;stroke:none;font-family:sans-serif;font-style:normal;font-weight:normal;font-size:40px;line-height:1.25;letter-spacing:0px;word-spacing:0px"><flowRegion
         id="flowRegion119"><rect
           id="rect121"
           width="87.14286"
           height="94.285713"
           x="197.85715"
           y="523.23395" /></flowRegion><flowPara
         id="flowPara123" /></flowRoot>    <text
       xml:space="preserve"
       style="font-style:normal;font-weight:normal;font-size:10.58333302px;line-height:1.25;font-family:sans-serif;letter-spacing:0px;word-spacing:0px;fill:#000000;fill-opacity:1;stroke:none;stroke-width:0.26458332"
       x="80.130951"
       y="160.92856"
       id="text127"><tspan
         sodipodi:role="line"
         id="tspan125"
         x="80.130951"
         y="170.58406"
         style="stroke-width:0.26458332" /></text>
    <flowRoot
       xml:space="preserve"
       id="flowRoot147"
       style="fill:black;fill-opacity:1;stroke:none;font-family:sans-serif;font-style:normal;font-weight:normal;font-size:40px;line-height:1.25;letter-spacing:0px;word-spacing:0px"><flowRegion
         id="flowRegion149"><rect
           id="rect151"
           width="39.285713"
           height="74.285713"
           x="178.57143"
           y="535.37683" /></flowRegion><flowPara
         id="flowPara153" /></flowRoot>    <flowRoot
       xml:space="preserve"
       id="flowRoot155"
       style="fill:black;fill-opacity:1;stroke:none;font-family:sans-serif;font-style:normal;font-weight:normal;font-size:40px;line-height:1.25;letter-spacing:0px;word-spacing:0px"><flowRegion
         id="flowRegion157"><rect
           id="rect159"
           width="45"
           height="55.714287"
           x="200"
           y="563.94824" /></flowRegion><flowPara
         id="flowPara161" /></flowRoot>    <text
       xml:space="preserve"
       style="font-style:normal;font-weight:normal;font-size:10.58333302px;line-height:1.25;font-family:sans-serif;letter-spacing:0px;word-spacing:0px;fill:#000000;fill-opacity:1;stroke:none;stroke-width:0.26458332"
       x="29.293154"
       y="178.97693"
       id="text165"><tspan
         sodipodi:role="line"
         id="tspan163"
         x="29.293154"
         y="188.63243"
         style="stroke-width:0.26458332" /></text>
    <path
       style="fill:#000000;fill-opacity:1;stroke:#000000;stroke-width:0.1889881;stroke-opacity:0.04020099"
       d="m 72.039949,142.23844 c -7.55567,-7.6518 -12.0093,-13.02105 -16.81246,-20.26898 -10.24653,-15.46187 -18.03064,-35.800544 -20.75883,-54.239573 -0.73828,-4.9898 -1.06595,-9.00074 -1.19269,-14.59933 l -0.11659,-5.149925 h 43.02436 43.024361 l -0.002,2.504093 c -0.0211,29.241081 -11.25138,59.506325 -30.732825,82.824025 -1.128954,1.35126 -4.127916,4.5617 -6.664376,7.1343 l -4.61164,4.67746 h -1.15578 -1.15577 z"
       id="path978"
       inkscape:connector-curvature="0" />
    <path
       style="fill:url(#radialGradient860);fill-opacity:1;stroke-width:0.26458332"
       d="m 97.261256,51.182168 c -0.009,2.04e-4 -0.0171,0.0032 -0.0227,0.0088 -0.0641,0.06405 0.072,1.301772 0.30231,2.75022 1.02423,6.442358 0.0789,13.555776 -2.45101,18.445392 l -0.68471,1.32292 -0.16227,-1.5875 c -0.18348,-1.79265 -0.83038,-3.92852 -1.72289,-5.68855 -1.31944,-2.60183 -1.34094,-2.56686 -1.32343,2.15594 0.016,4.31613 0.0142,4.33037 -0.81029,6.04615 -1.86316,3.87708 -3.17512,4.9731 -9.92911,8.295098 -4.25174,2.09124 -4.81231,2.44874 -6.25595,3.992 -1.33557,1.42773 -1.75247,2.12591 -2.64325,4.42712 -0.58169,1.50271 -1.13828,3.00054 -1.23662,3.32796 -0.32411,1.07911 0.31997,0.62252 1.11983,-0.79375 1.84231,-3.26207 4.65857,-5.56722 8.56072,-7.0068 1.21816,-0.44941 3.40548,-1.25285 4.86068,-1.78542 3.36685,-1.23217 4.61279,-1.9645 6.23218,-3.66438 0.79331,-0.83274 1.30387,-1.204548 1.30587,-0.94981 0.006,0.97377 -1.15908,3.99945 -1.9911,5.16971 -0.49461,0.69568 -0.85153,1.31216 -0.79323,1.37045 0.21711,0.21713 2.33363,-1.70421 3.98787,-3.61993 2.11059,-2.4442 4.17173,-5.395748 5.4715,-7.836208 l 0.986494,-1.85208 0.007,1.75648 c 0.0124,3.12554 -1.007354,7.295968 -2.724374,11.141948 -0.37359,0.83674 -0.57775,1.52136 -0.45372,1.52136 0.12403,0 0.74353,-0.57682 1.37717,-1.28158 4.773264,-5.30903 7.319804,-12.980318 6.557734,-19.755385 -0.47823,-4.25161 -1.84793,-8.244429 -3.90208,-11.374498 -1.311794,-1.998861 -3.372034,-4.54197 -3.662824,-4.535641 z m -26.48727,11.547099 c -0.15054,0 -0.35436,0.327414 -0.45269,0.727605 -0.35316,1.437327 -1.97153,4.44723 -2.80964,5.225518 -0.65944,0.61235 -0.80666,0.67282 -0.64441,0.26459 0.48802,-1.227946 0.93754,-3.221984 0.86506,-3.836463 -0.069,-0.585041 -0.15841,-0.508621 -0.77566,0.661459 -0.95773,1.81551 -1.7253,2.467835 -5.24516,4.458124 -1.67349,0.94627 -3.53831,2.14611 -4.14393,2.6665 -1.49645,1.28588 -2.47065,3.2981 -2.47065,5.10305 0,1.01073 -0.17249,1.68751 -0.61133,2.39572 -0.33636,0.542808 -0.78177,1.403728 -0.98961,1.913058 -0.45543,1.11607 -0.44457,4.15363 0.0165,4.5868 0.20534,0.19288 0.36556,0.20933 0.42943,0.0434 0.40044,-1.04024 1.80634,-3.11102 2.35748,-3.47214 0.36706,-0.24051 1.5079,-0.6624 2.53525,-0.93792 2.33612,-0.62656 4.10399,-1.5184 5.10925,-2.577108 0.4274,-0.45013 0.86627,-0.81804 0.97565,-0.81804 0.46178,0 0.53795,2.366728 0.12195,3.797698 -0.6279,2.15989 -1.88632,4.0967 -5.67459,8.73487 -4.35904,5.39163 -8.715471,15.400552 -4.29224,24.250202 7.36377,10.966 17.40686,10.44823 26.9322,4.59197 -10.86497,4.67471 -21.20667,2.79845 -23.60889,-7.69617 -0.82085,-3.85805 -1.0231,-6.67454 1.37098,-11.3435 0.66809,-1.15214 1.6797,-2.987422 2.24844,-4.078822 0.56874,-1.09141 0.96869,-1.68672 0.88832,-1.32291 -0.78036,3.53231 -0.92906,4.501912 -0.92346,6.036322 0.004,0.97275 0.12317,2.30467 0.26562,2.95951 0.30022,1.38018 1.57635,4.23333 1.89342,4.23333 0.11876,0 0.21827,-1.04179 0.22117,-2.3151 0.0115,-5.0549 0.2562,-5.81757 4.14032,-12.898442 4.02983,-7.34652 4.75073,-12.07401 2.52129,-16.536458 -0.55042,-1.10173 -1.06532,-1.67474 -2.11925,-2.35748 l -1.39216,-0.90175 1.39681,-0.76378 c 0.76823,-0.42011 1.73621,-1.08589 2.15078,-1.47949 0.91715,-0.87075 1.86423,-2.15825 1.7048,-2.31769 -0.0641,-0.0641 -0.82134,0.16429 -1.68258,0.50798 -0.86124,0.34369 -1.96658,0.70093 -2.45618,0.79323 l -0.88987,0.16743 0.94464,-1.04541 c 1.49914,-1.65937 2.06456,-3.019515 2.22416,-5.347997 0.092,-1.342649 0.0461,-2.071706 -0.13126,-2.071706 z m 11.2329,57.778903 c 13.02785,-5.6053 26.807874,-20.630282 28.554334,-41.52098 -1.2837,12.155178 -14.342484,32.78342 -28.554334,41.52098 z m -9.71051,-24.666712 -1.63143,8.151442 h 1.74512 l 0.60254,-3.00137 c 0.96635,0.0152 1.61816,-0.0872 1.95544,-0.30696 0.34106,-0.22358 0.56465,-0.60254 0.67076,-1.136882 l 0.45475,-2.2624 c 0.11748,-0.58359 0.0133,-0.97013 -0.31264,-1.15961 -0.32212,-0.18948 -0.85645,-0.28422 -1.603,-0.28422 z m 4.39973,0 -1.63143,8.151442 h 1.61438 l 1.06866,-5.331982 c 0.0379,-0.19327 0.15159,-0.2899 0.34107,-0.2899 0.18569,0 0.25769,0.10042 0.21601,0.30127 l -1.06299,5.320612 h 1.61437 l 1.14825,-5.729882 c 0.0531,-0.27665 -0.0189,-0.49834 -0.216,-0.66508 -0.19706,-0.16674 -0.45476,-0.25012 -0.77308,-0.25012 -0.47749,0 -0.82993,0.0815 -1.0573,0.24443 l 0.35243,-1.75079 z m 16.51889,0 -0.23875,1.18804 h 1.62006 l 0.23874,-1.18804 z m -19.40657,1.1653 c 0.39791,0 0.56844,0.144 0.5116,0.43201 l -0.39223,1.95544 c -0.0568,0.28801 -0.28422,0.43202 -0.68213,0.43202 z m 8.63461,0.34106 c -1.28467,0 -2.01985,0.46423 -2.20555,1.39268 l -0.79013,3.950672 c -0.18569,0.92845 0.36381,1.39268 1.64848,1.39268 1.25057,0 1.96491,-0.44528 2.14302,-1.33584 l 0.81287,-4.064352 c 0.091,-0.45854 -0.0303,-0.79582 -0.3638,-1.01182 -0.33349,-0.21601 -0.74845,-0.32402 -1.24489,-0.32402 z m 4.08709,0 c -1.25814,0 -1.98007,0.46423 -2.16576,1.39268 l -0.79013,3.950672 c -0.18569,0.92845 0.35054,1.39268 1.60869,1.39268 1.26952,0 1.99333,-0.44528 2.17144,-1.33584 l 0.26717,-1.34152 h -1.61437 l -0.26717,1.33015 c -0.0455,0.22359 -0.16106,0.33538 -0.34675,0.33538 -0.18948,0 -0.26148,-0.11179 -0.216,-0.33538 l 0.30695,-1.54047 h 2.17713 l 0.50591,-2.512512 c 0.17811,-0.89056 -0.36759,-1.33584 -1.63711,-1.33584 z m 4.88859,0 c -0.45096,0 -0.80339,0.0891 -1.05729,0.26717 l 0.0455,-0.22169 h -1.62006 l -1.31878,6.599602 h 1.62006 l 1.06298,-5.309242 c 0.0379,-0.19327 0.14969,-0.2899 0.33538,-0.2899 0.18569,0 0.25769,0.10042 0.21601,0.30127 l -1.0573,5.297872 h 1.62005 l 1.14257,-5.707152 c 0.0606,-0.30696 -0.0171,-0.54002 -0.23306,-0.69918 -0.21222,-0.15916 -0.46423,-0.23875 -0.75603,-0.23875 z m 1.48363,0.0455 -1.31878,6.599602 h 1.62006 l 1.31878,-6.599602 z m 1.89291,0 0.61392,3.109372 -1.96681,3.49023 h 1.62006 l 0.88108,-1.79059 0.19896,1.79059 h 1.7849 l -0.61391,-3.41065 1.72237,-3.188952 h -1.54047 l -0.77877,1.71101 -0.21032,-1.71101 z m -12.57959,0.97772 c 0.18569,0 0.2558,0.108 0.21032,0.32401 l -0.80718,4.041612 c -0.0455,0.22359 -0.16106,0.33538 -0.34675,0.33538 -0.18948,0 -0.26149,-0.11179 -0.21601,-0.33538 l 0.80719,-4.041612 c 0.0455,-0.21601 0.16295,-0.32401 0.35243,-0.32401 z m 4.12119,0 c 0.18569,0 0.2558,0.108 0.21033,0.32401 l -0.30128,1.512052 h -0.56275 l 0.30127,-1.512052 c 0.0455,-0.21601 0.16295,-0.32401 0.35243,-0.32401 z m -17.82888,8.606192 -1.38441,6.91637 h 1.91461 c 0.41157,0 0.78778,-0.11236 1.12861,-0.33744 0.34405,-0.2283 0.56304,-0.57074 0.65629,-1.02733 l 0.2651,-1.341 c 0.1029,-0.51125 -0.14165,-0.84405 -0.73329,-0.99839 0.63023,-0.19936 0.99391,-0.5418 1.09038,-1.02733 l 0.19275,-0.95963 c 0.0868,-0.42765 -0.008,-0.73828 -0.28474,-0.93121 -0.27652,-0.19614 -0.62861,-0.29404 -1.05626,-0.29404 z m 1.34049,0.89245 c 0.28295,0 0.40066,0.12058 0.35243,0.36174 l -0.23668,1.17667 c -0.0482,0.24437 -0.21365,0.36639 -0.49661,0.36639 z m 4.39869,0.38551 c -0.38263,0 -0.68167,0.0757 -0.8971,0.22686 l 0.0388,-0.1881 h -1.37459 l -1.1188,5.59965 h 1.37459 l 0.90176,-4.50463 c 0.0322,-0.16399 0.12718,-0.24598 0.28473,-0.24598 0.15756,0 0.21831,0.0849 0.18294,0.25528 l -0.24081,1.21543 h 1.37459 l 0.31316,-1.56269 c 0.0482,-0.23794 -0.0111,-0.42892 -0.17828,-0.57361 -0.16721,-0.14791 -0.38764,-0.22221 -0.66095,-0.22221 z m 2.96158,0 c -1.09325,0 -1.71543,0.37816 -1.86655,1.13378 l -0.22686,1.11879 h 1.32653 c 0.0161,-0.0804 0.0339,-0.19952 0.0532,-0.35708 0.0225,-0.15755 0.0418,-0.27618 0.0579,-0.35657 0.09,-0.44694 0.22509,-0.67076 0.40515,-0.67076 0.15755,0 0.21687,0.0916 0.17828,0.27492 l -0.16381,0.82992 c -0.0193,0.0965 -0.20453,0.22474 -0.55501,0.38551 -0.6045,0.27974 -1.01733,0.51321 -1.2392,0.6997 -0.21865,0.1865 -0.35226,0.40497 -0.40049,0.65577 l -0.22686,1.12397 c -0.11575,0.5852 0.20114,0.87746 0.95033,0.87746 0.48553,0 0.79903,-0.0979 0.94051,-0.29404 l -0.0434,0.21704 h 1.21543 l 0.89246,-4.45657 c 0.15755,-0.78778 -0.2751,-1.18184 -1.2976,-1.18184 z m 3.48713,0 c -1.06753,0 -1.68006,0.39406 -1.83762,1.18184 l -0.14934,0.75241 c -0.0611,0.29903 -0.0341,0.52428 0.0816,0.67541 0.11898,0.14791 0.5,0.40979 1.14309,0.786 0.16077,0.13826 0.19453,0.44355 0.10128,0.91622 -0.0739,0.36334 -0.18776,0.54519 -0.34209,0.54519 -0.15434,0 -0.21222,-0.095 -0.17364,-0.28474 l 0.23616,-1.18649 h -1.36994 l -0.23616,1.19631 c -0.15112,0.75562 0.30368,1.13326 1.36477,1.13326 1.0836,0 1.70435,-0.39354 1.86191,-1.18132 l 0.16898,-0.83922 c 0.074,-0.37621 -0.0259,-0.67863 -0.29921,-0.90693 -0.6881,-0.3762 -1.05466,-0.64147 -1.09967,-0.79581 -0.045,-0.15434 -0.0368,-0.38247 0.0243,-0.68472 0.0579,-0.2926 0.17168,-0.43925 0.34209,-0.43925 0.17042,0 0.20901,0.23347 0.11576,0.6997 l -0.16381,0.67025 h 1.341 l 0.22169,-1.10433 c 0.15113,-0.75562 -0.2926,-1.13378 -1.33118,-1.13378 z m 3.47265,0 c -1.09003,0 -1.71365,0.39406 -1.8712,1.18184 l -0.67076,3.35225 c -0.15756,0.78778 0.30885,1.18132 1.39888,1.18132 1.06109,0 1.66737,-0.37764 1.81849,-1.13326 l 0.68937,-3.44837 c 0.0772,-0.38907 -0.0256,-0.67558 -0.30851,-0.85886 -0.28296,-0.18328 -0.63505,-0.27492 -1.05627,-0.27492 z m 1.73633,0.0388 -0.11111,5.59965 h 1.65934 l 2.127,-5.59965 h -1.35548 l -1.12344,3.30884 0.1881,-3.30884 z m -1.92908,0.8294 c 0.15755,0 0.21687,0.0916 0.17828,0.27492 l -0.68471,3.42925 c -0.0386,0.18971 -0.137,0.28474 -0.29456,0.28474 -0.16077,0 -0.22152,-0.095 -0.18293,-0.28474 l 0.68471,-3.42925 c 0.0386,-0.18328 0.13844,-0.27492 0.29921,-0.27492 z m -14.65751,1.40354 c 0.28296,0 0.40015,0.12057 0.35192,0.36173 l -0.35192,1.7508 c -0.0482,0.24437 -0.21417,0.3669 -0.49712,0.3669 z m 7.41764,0.87798 -0.28939,1.44229 c -0.0322,0.17041 -0.12379,0.25528 -0.27492,0.25528 -0.16398,0 -0.22955,-0.0849 -0.1974,-0.25528 l 0.20722,-1.01803 c 0.0386,-0.20579 0.2233,-0.34709 0.55449,-0.42426 z m -8.34058,5.30407 c -0.6541,0 -0.98133,0.25482 -0.98133,0.76377 v 0.68885 h 0.77721 v -0.67799 c 0,-0.11025 0.0606,-0.16537 0.1819,-0.16537 0.11759,0 0.17622,0.0882 0.17622,0.26459 0,0.33807 -0.0531,0.60467 -0.15968,0.79943 l -0.97565,1.7911 v 0.524 h 1.98179 v -0.50746 h -1.06144 l 0.97566,-1.86862 c 0.057,-0.1084 0.0858,-0.24621 0.0858,-0.41341 0,-0.42627 -0.0662,-0.7322 -0.19844,-0.91777 -0.13045,-0.18742 -0.39779,-0.28112 -0.80202,-0.28112 z m 2.17971,0 c -0.68167,0 -1.02215,0.25631 -1.02215,0.76894 v 2.54403 c 0,0.22784 0.0924,0.40348 0.27801,0.52658 0.18742,0.12311 0.43397,0.18449 0.73898,0.18449 0.29582,0 0.53709,-0.0626 0.7245,-0.18759 0.18925,-0.12494 0.28422,-0.30132 0.28422,-0.52916 v -2.54352 c 0,-0.50895 -0.33475,-0.76377 -1.00356,-0.76377 z m 2.14148,0 c -0.65411,0 -0.98082,0.25482 -0.98082,0.76377 v 0.68885 h 0.77721 v -0.67799 c 0,-0.11025 0.0606,-0.16537 0.1819,-0.16537 0.1176,0 0.17622,0.0882 0.17622,0.26459 0,0.33807 -0.0531,0.60467 -0.15968,0.79943 l -0.97565,1.7911 v 0.524 h 1.98127 v -0.50746 h -1.06091 l 0.97565,-1.86862 c 0.057,-0.1084 0.0853,-0.24621 0.0853,-0.41341 0,-0.42627 -0.0661,-0.7322 -0.19844,-0.91777 -0.13045,-0.18742 -0.39779,-0.28112 -0.80201,-0.28112 z m 2.18023,0 c -0.68167,0 -1.02268,0.25631 -1.02268,0.76894 v 2.54403 c 0,0.22784 0.093,0.40348 0.27854,0.52658 0.18741,0.12311 0.43345,0.18449 0.73845,0.18449 0.29582,0 0.53761,-0.0626 0.72502,-0.18759 0.18925,-0.12494 0.2837,-0.30132 0.2837,-0.52916 v -2.54352 c 0,-0.50895 -0.33423,-0.76377 -1.00303,-0.76377 z m -4.32687,0.54312 c 0.0937,0 0.14056,0.0393 0.14056,0.11833 v 2.69286 c 0,0.079 -0.0469,0.11834 -0.14056,0.11834 -0.0992,0 -0.14883,-0.0393 -0.14883,-0.11834 v -2.69286 c 0,-0.079 0.0496,-0.11833 0.14883,-0.11833 z m 4.32118,0 c 0.0937,0 0.14056,0.0393 0.14056,0.11833 v 2.69286 c 0,0.079 -0.0469,0.11834 -0.14056,0.11834 -0.0992,0 -0.14883,-0.0393 -0.14883,-0.11834 v -2.69286 c 0,-0.079 0.0496,-0.11833 0.14883,-0.11833 z"
       id="path32"
       inkscape:connector-curvature="0" />
    <path
       style="font-style:normal;font-weight:normal;font-size:10.58333302px;line-height:1.25;font-family:sans-serif;letter-spacing:0px;word-spacing:0px;fill:url(#radialGradient4664);fill-opacity:1;stroke:url(#radialGradient4672);stroke-width:0.26458332;stroke-opacity:1"
       d="m 39.104141,50.897668 -1.48311,7.410399 h 1.62781 l 0.71313,-3.555338 c 0.33762,0 0.4806,0.125746 0.42892,0.377237 -0.003,0.01378 -0.0724,0.329007 -0.20671,0.945679 l -0.0982,0.444418 v 0.01033 c -0.19637,0.981853 -0.22738,1.577853 -0.093,1.788006 h 1.62781 c -0.17226,-0.158474 -0.13953,-0.83027 0.0982,-2.015381 l 0.18604,-0.811321 c 0.13091,-0.658014 -0.12575,-1.066258 -0.76998,-1.22473 0.71313,-0.203261 1.12827,-0.592558 1.2454,-1.167889 l 0.1757,-0.888833 c 0.0896,-0.454753 -0.0138,-0.787205 -0.31006,-0.997356 -0.29628,-0.210151 -0.67351,-0.315226 -1.13171,-0.315226 z m 11.72022,0 -1.48311,7.410399 h 1.11104 l 0.16536,-0.201538 c 0.24461,0.189481 0.5116,0.28422 0.80099,0.28422 0.37207,0 0.70797,-0.08785 1.00769,-0.263548 0.29972,-0.1757 0.48059,-0.415134 0.5426,-0.718302 l 0.863,-4.309816 c 0.0517,-0.268716 -0.0189,-0.4737 -0.21188,-0.61495 -0.19292,-0.144693 -0.42202,-0.21704 -0.68729,-0.21704 -0.43408,0 -0.75448,0.07407 -0.96118,0.22221 l 0.32039,-1.591635 z m -10.28361,0.956013 c 0.33762,0 0.48059,0.129191 0.42891,0.387575 l -0.24287,1.219563 c -0.0551,0.261826 -0.2515,0.392742 -0.58912,0.392742 z m 7.42074,0.413412 c -0.78204,0 -1.23852,0.327284 -1.36943,0.981852 l -0.863,4.309814 c -0.0482,0.248047 0.0172,0.449585 0.19637,0.604615 0.1826,0.151583 0.41858,0.227375 0.70797,0.227375 0.41341,0 0.73036,-0.07407 0.95085,-0.222207 -0.0724,0.361735 -0.2825,0.542602 -0.63046,0.542602 h -1.19372 l -0.17053,0.868164 h 1.52445 c 0.79926,0 1.30053,-0.129191 1.50379,-0.387572 0.2067,-0.254937 0.34795,-0.577054 0.42374,-0.966351 l 1.18339,-5.916951 h -1.26607 l -0.23254,0.22221 c -0.30317,-0.175702 -0.55811,-0.263551 -0.76481,-0.263551 z m -4.94544,0.04134 -1.04903,5.250325 c -0.0482,0.248047 0.0172,0.449585 0.19637,0.604615 0.18259,0.151583 0.41858,0.227375 0.70797,0.227375 0.41685,0 0.73897,-0.09474 0.96635,-0.28422 l -0.0413,0.201538 h 1.46761 l 1.19889,-5.999633 h -1.46761 l -0.97669,4.88859 c -0.0344,0.175701 -0.13608,0.263551 -0.30489,0.263551 -0.17225,0 -0.24115,-0.09129 -0.2067,-0.273886 l 0.97668,-4.878255 z m 11.16211,0 0.13436,3.162599 c 0.0724,1.753552 0.0896,2.723348 0.0517,2.909382 -0.0379,0.186036 -0.10679,0.298 -0.2067,0.335896 -0.0999,0.0379 -0.34279,0.05685 -0.72864,0.05685 l -0.16019,0.806151 h 1.02836 c 0.3514,0 0.63906,-0.06546 0.86299,-0.196371 0.22393,-0.127468 0.45476,-0.496094 0.69247,-1.105874 l 2.33577,-5.968629 h -1.4366 l -1.12138,3.172933 0.0207,-3.172933 z m -5.84977,0.888836 c 0.16881,0 0.23426,0.09129 0.19637,0.273883 l -0.75448,3.767212 c -0.0345,0.175702 -0.13608,0.263551 -0.30489,0.263551 -0.17225,0 -0.23943,-0.09129 -0.20154,-0.273886 l 0.74931,-3.756877 c 0.0379,-0.182589 0.14297,-0.273883 0.31523,-0.273883 z m 3.76204,0 c 0.16881,0 0.23427,0.09129 0.19637,0.273883 l -0.74414,3.715536 c -0.0345,0.182591 -0.13608,0.273886 -0.30489,0.273886 -0.17225,0 -0.24116,-0.09129 -0.2067,-0.273886 l 0.7493,-3.72587 c 0.0345,-0.1757 0.13781,-0.263549 0.31006,-0.263549 z m -7.7773,8.262543 c -1.25402,0 -1.97576,0.480592 -2.16524,1.441773 l -0.95602,4.769733 c -0.17914,0.888836 0.35829,1.333254 1.61231,1.333254 0.43408,0 0.84405,-0.105076 1.2299,-0.315227 0.38929,-0.213596 0.61839,-0.496094 0.68729,-0.847492 l 0.37724,-1.881024 h -1.48311 l -0.3669,1.829345 c -0.0241,0.120579 -0.11025,0.18087 -0.25839,0.18087 -0.15503,0 -0.22048,-0.06029 -0.19637,-0.18087 l 1.02836,-5.141804 c 0.0241,-0.120578 0.11369,-0.180866 0.26872,-0.180866 0.14814,0 0.21015,0.06029 0.18603,0.180866 l -0.28938,1.46761 h 1.48311 l 0.26872,-1.343586 c 0.17225,-0.875054 -0.30317,-1.312582 -1.42627,-1.312582 z m 2.03605,0.06718 -1.48311,7.4104 h 1.47277 l 1.48312,-7.4104 z m 5.54488,0 -1.48311,7.4104 h 1.11104 l 0.16537,-0.201539 c 0.2446,0.189482 0.51159,0.284221 0.80098,0.284221 0.37207,0 0.70797,-0.08785 1.00769,-0.263549 0.29973,-0.175699 0.48059,-0.415134 0.54261,-0.718304 l 0.86299,-4.309813 c 0.0517,-0.268717 -0.019,-0.4737 -0.21187,-0.61495 -0.19293,-0.144693 -0.42203,-0.217041 -0.6873,-0.217041 -0.43408,0 -0.75448,0.07407 -0.96118,0.222208 l 0.32039,-1.591633 z m -4.04626,1.410766 -1.04903,5.250326 c -0.0482,0.248047 0.0172,0.449585 0.19637,0.604615 0.18259,0.151583 0.41857,0.227375 0.70796,0.227375 0.41686,0 0.73898,-0.09474 0.96635,-0.284221 l -0.0413,0.201539 h 1.46761 l 1.19889,-5.999634 h -1.4676 l -0.97669,4.88859 c -0.0344,0.175699 -0.13608,0.263552 -0.30489,0.263552 -0.17225,0 -0.24116,-0.0913 -0.20671,-0.273886 l 0.97669,-4.878256 z m 5.31233,0.888836 c 0.16881,0 0.23427,0.09129 0.19637,0.273884 l -0.74414,3.715536 c -0.0344,0.182589 -0.13608,0.273886 -0.30489,0.273886 -0.17225,0 -0.24115,-0.0913 -0.2067,-0.273886 l 0.74931,-3.725871 c 0.0345,-0.175699 0.1378,-0.263549 0.31005,-0.263549 z"
       id="text4613"
       inkscape:connector-curvature="0" />
  </g>
</svg>
